<?xml version="1.0" encoding="utf-8"?>
<!-- Generator: Adobe Illustrator 24.0.0, SVG Export Plug-In . SVG Version: 6.00 Build 0)  -->
<svg version="1.1" id="Layer_1" xmlns="http://www.w3.org/2000/svg" xmlns:xlink="http://www.w3.org/1999/xlink" x="0px" y="0px"
	 viewBox="0 0 570 570" style="enable-background:new 0 0 570 570;" xml:space="preserve">
<style type="text/css">
	.st0{fill:#5BAACF;}
	.st1{fill:#EBECEC;}
	.st2{fill:#E6E7E8;}
</style>
<g>
	<path class="st0" d="M483.22,63.6l0,88.77c0,3.96-3.21,7.17-7.17,7.17l-123.93,0c-9.33,0-16.89,7.56-16.89,16.89l-1.42,191.25
		c0,4.67-3.78,8.44-8.44,8.44l-83.72,0c-4.66,0-8.44-3.77-8.44-8.44l1.42-191.25c0-9.33-7.56-16.89-16.89-16.89l-123.93,0
		c-3.96,0-7.17-3.21-7.17-7.17l0-88.77c0-3.96,3.21-7.17,7.17-7.17l382.25,0C480.01,56.44,483.22,59.65,483.22,63.6z"/>
	<path class="st1" d="M483.36,420.46l-0.03,84.66c0,4.66-3.78,8.44-8.44,8.44l-378.85,0c-5.13,0-9.29-4.16-9.29-9.29l0.03-298.3
		c0-5.13,4.16-9.29,9.29-9.29l82.03,0c5.13,0,9.29,4.15,9.29,9.29l0,188.99c0,9.42,7.64,17.06,17.06,17.06l270.48,0
		C479.58,412.02,483.36,415.8,483.36,420.46z"/>
	<path class="st2" d="M468.71,226.98l-79.21,0.16c-5.52,0.01-10.01-4.46-10.02-9.98l-0.02-8.69c-0.01-5.52,4.46-10.01,9.98-10.02
		l79.21-0.16c5.52-0.01,10.01,4.46,10.02,9.98l0.02,8.69C478.7,222.48,474.23,226.97,468.71,226.98z"/>
	<path class="st2" d="M468.81,276.47l-79.21,0.16c-5.52,0.01-10.01-4.46-10.02-9.98l-0.02-8.69c-0.01-5.52,4.46-10.01,9.98-10.02
		l79.21-0.16c5.52-0.01,10.01,4.46,10.02,9.98l0.02,8.69C478.8,271.97,474.33,276.46,468.81,276.47z"/>
	<path class="st2" d="M468.91,325.96l-79.21,0.16c-5.52,0.01-10.01-4.46-10.02-9.98l-0.02-8.69c-0.01-5.52,4.46-10.01,9.98-10.02
		l79.21-0.16c5.52-0.01,10.01,4.46,10.02,9.98l0.02,8.69C478.9,321.47,474.43,325.95,468.91,325.96z"/>
	<path class="st2" d="M469.01,376.87l-79.21,0.16c-5.52,0.01-10.01-4.46-10.02-9.98l-0.02-8.69c-0.01-5.52,4.46-10.01,9.98-10.02
		l79.21-0.16c5.52-0.01,10.01,4.46,10.02,9.98l0.02,8.69C479,372.38,474.54,376.86,469.01,376.87z"/>
</g>
</svg>
